#!OML:ASF H:\Dans Jumps\Project 1\Capture day 1\Session 1\subject.ASF
:FULLY-SPECIFIED
:DEGREES
360
root 0.51431 17.6457 -2.03668 7.04759 -0.753165 -0.923814
lowerback 0.530693 -0.191399 -1.02885
upperback 4.65067 -0.289733 1.45488
thorax 4.50955 -0.217663 2.06926
lowerneck -12.6243 0.180436 -1.96328
upperneck 36.0583 0.423039 1.07043
head 14.5103 0.0546381 0.854397
rclavicle -2.98177e-015 5.1684e-015
rhumerus -17.9166 -20.3898 -82.6479
rradius 21.4321
rwrist 37.1348
rhand -20.0413 -26.2576
rfingers 7.12502
rthumb 6.29993 -56.144
lclavicle -2.98177e-015 5.1684e-015
lhumerus -14.8314 -2.59854 89.377
lradius 18.0121
lwrist 2.58337
lhand -25.8927 -5.60531
lfingers 7.12502
lthumb 0.649394 24.3734
rfemur -18.2309 -2.37358 18.9051
rtibia 27.399
rfoot -14.0827 -1.06465
rtoes 10.8252
lfemur -17.036 7.35734 -18.4394
ltibia 23.5731
lfoot -10.5915 5.92586
ltoes 2.54906
361
root 0.512456 17.6484 -2.03097 7.06347 -0.710478 -0.920969
lowerback 0.497893 -0.191623 -1.01766
upperback 4.63863 -0.289972 1.45339
thorax 4.5155 -0.217246 2.06135
lowerneck -12.6205 0.172522 -1.9553
upperneck 36.107 0.410674 1.06697
head 14.5326 0.0497793 0.850159
rclavicle -9.98893e-015 -2.18663e-015
rhumerus -17.8452 -20.3921 -82.616
rradius 21.4679
rwrist 37.1021
rhand -20.0548 -26.2626
rfingers 7.12502
rthumb 6.28692 -56.1493
lclavicle -9.98893e-015 -2.18663e-015
lhumerus -14.8161 -2.48537 89.3306
lradius 17.984
lwrist 2.54
lhand -25.9249 -5.59572
lfingers 7.12502
lthumb 0.618296 24.3831
rfemur -18.1785 -2.3802 18.9084
rtibia 27.3189
rfoot -14.0657 -1.09398
rtoes 10.8547
lfemur -16.9884 7.32692 -18.434
ltibia 23.4764
lfoot -10.5649 5.90715
ltoes 2.5629
362
root 0.510702 17.6511 -2.02521 7.08025 -0.663679 -0.921896
lowerback 0.460794 -0.192761 -1.00256
upperback 4.62817 -0.291588 1.45381
thorax 4.5256 -0.21745 2.05317
lowerneck -12.6189 0.164199 -1.94782
upperneck 36.1509 0.39798 1.0633
head 14.5531 0.0447391 0.845834
rclavicle -8.44835e-015 -1.19271e-015
rhumerus -17.7725 -20.4002 -82.5823
rradius 21.5023
rwrist 37.0677
rhand -20.0667 -26.2636
rfingers 7.12502
rthumb 6.27545 -56.1507
lclavicle -8.44835e-015 -1.19271e-015
lhumerus -14.8049 -2.37584 89.2886
lradius 17.957
lwrist 2.50259
lhand -25.9409 -5.55058
lfingers 7.12502
lthumb 0.602831 24.4283
rfemur -18.1243 -2.38547 18.9155
rtibia 27.2361
rfoot -14.0481 -1.12717
rtoes 10.8765
lfemur -16.9439 7.29539 -18.4249
ltibia 23.3824
lfoot -10.5389 5.88677
ltoes 2.57055
363
root 0.50909 17.6537 -2.01937 7.09456 -0.608936 -0.924698
lowerback 0.42258 -0.196648 -0.98381
upperback 4.62035 -0.297024 1.45539
thorax 4.53924 -0.219484 2.04401
lowerneck -12.6223 0.156791 -1.93774
upperneck 36.1923 0.387367 1.05596
head 14.5737 0.0404751 0.839851
rclavicle 8.64713e-015 -1.35174e-014
rhumerus -17.6976 -20.4094 -82.5493
rradius 21.5355
rwrist 37.0278
rhand -20.0732 -26.2676
rfingers 7.12502
rthumb 6.26911 -56.1549
lclavicle 8.64713e-015 -1.35174e-014
lhumerus -14.7951 -2.27285 89.25
lradius 17.9287
lwrist 2.47359
lhand -25.9428 -5.47426
lfingers 7.12502
lthumb 0.600971 24.5046
rfemur -18.0639 -2.3926 18.9243
rtibia 27.15
rfoot -14.0372 -1.16823
rtoes 10.866
lfemur -16.8987 7.25944 -18.4136
ltibia 23.2915
lfoot -10.5159 5.86321
ltoes 2.58456
364
root 0.507599 17.6562 -2.01363 7.10726 -0.546871 -0.929875
lowerback 0.384728 -0.203396 -0.963209
upperback 4.61501 -0.306466 1.4599
thorax 4.55545 -0.223542 2.0367
lowerneck -12.6267 0.149109 -1.92911
upperneck 36.2257 0.377526 1.04655
head 14.5907 0.0361344 0.833312
rclavicle 5.56597e-015 -4.57205e-015
rhumerus -17.6189 -20.4188 -82.5143
rradius 21.566
rwrist 36.9842
rhand -20.0718 -26.2761
rfingers 7.12502
rthumb 6.2705 -56.1632
lclavicle 5.56597e-015 -4.57205e-015
lhumerus -14.7862 -2.17567 89.2159
lradius 17.9021
lwrist 2.44892
lhand -25.9233 -5.36394
lfingers 7.12502
lthumb 0.619853 24.6149
rfemur -17.9997 -2.39905 18.9355
rtibia 27.0622
rfoot -14.0264 -1.21623
rtoes 10.8588
lfemur -16.8537 7.22106 -18.3995
ltibia 23.203
lfoot -10.4941 5.83467
ltoes 2.60098
365
root 0.506145 17.6586 -2.00797 7.11903 -0.474904 -0.934212
lowerback 0.34719 -0.214232 -0.944759
upperback 4.611 -0.321433 1.46678
thorax 4.57316 -0.230508 2.03286
lowerneck -12.6353 0.143038 -1.91922
upperneck 36.2561 0.37144 1.0327
head 14.6072 0.0329957 0.825287
rclavicle 2.48481e-016 3.77691e-015
rhumerus -17.5389 -20.4265 -82.4778
rradius 21.5932
rwrist 36.9352
rhand -20.074 -26.2857
rfingers 7.12502
rthumb 6.2684 -56.173
lclavicle 2.48481e-016 3.77691e-015
lhumerus -14.7782 -2.08151 89.1859
lradius 17.8743
lwrist 2.42322
lhand -25.9122 -5.26787
lfingers 7.12502
lthumb 0.630526 24.7109
rfemur -17.9327 -2.40849 18.9461
rtibia 26.9746
rfoot -14.0183 -1.27116
rtoes 10.8514
lfemur -16.8098 7.18173 -18.3861
ltibia 23.1159
lfoot -10.4756 5.79799
ltoes 2.61828
366
root 0.504774 17.6609 -2.00253 7.1285 -0.392229 -0.931986
lowerback 0.316106 -0.227815 -0.932414
upperback 4.60523 -0.339938 1.47356
thorax 4.58555 -0.239413 2.0322
lowerneck -12.6366 0.1342 -1.91468
upperneck 36.2779 0.361085 1.02303
head 14.6181 0.0279538 0.819149
rclavicle 1.00883e-014 1.19271e-015
rhumerus -17.4664 -20.4348 -82.4373
rradius 21.6196
rwrist 36.8755
rhand -20.0767 -26.2994
rfingers 7.12502
rthumb 6.26579 -56.1867
lclavicle 1.00883e-014 1.19271e-015
lhumerus -14.7754 -1.99992 89.1609
lradius 17.8494
lwrist 2.40366
lhand -25.895 -5.19884
lfingers 7.12502
lthumb 0.647196 24.7799
rfemur -17.8635 -2.42566 18.9496
rtibia 26.8901
rfoot -14.0112 -1.32863
rtoes 10.8615
lfemur -16.7655 7.13692 -18.3798
ltibia 23.0293
lfoot -10.4567 5.75692
ltoes 2.62586
367
root 0.503418 17.6632 -1.99721 7.13745 -0.302813 -0.926335
lowerback 0.2884 -0.242585 -0.92416
upperback 4.59866 -0.359954 1.48071
thorax 4.59531 -0.249211 2.03415
lowerneck -12.6411 0.124246 -1.90749
upperneck 36.2985 0.349759 1.00969
head 14.6292 0.0223945 0.810871
rclavicle -2.03754e-015 1.61016e-014
rhumerus -17.3974 -20.4429 -82.3941
rradius 21.6426
rwrist 36.8085
rhand -20.0812 -26.3163
rfingers 7.12502
rthumb 6.26139 -56.2037
lclavicle -2.03754e-015 1.61016e-014
lhumerus -14.7748 -1.91897 89.1399
lradius 17.8231
lwrist 2.37699
lhand -25.9018 -5.17047
lfingers 7.12502
lthumb 0.640542 24.8083
rfemur -17.7957 -2.44605 18.9497
rtibia 26.8104
rfoot -14.0043 -1.38922
rtoes 10.8914
lfemur -16.7219 7.09386 -18.3774
ltibia 22.9421
lfoot -10.4393 5.70873
ltoes 2.62458
